<svg xmlns="http://www.w3.org/2000/svg" version="1.1" xmlns:xlink="http://www.w3.org/1999/xlink" xmlns:svgjs="http://svgjs.com/svgjs" width="1440" height="560" preserveAspectRatio="none" viewBox="0 0 1440 560"><g mask="url(&quot;#SvgjsMask1155&quot;)" fill="none"><rect width="1440" height="560" x="0" y="0" fill="#0e2a47"></rect><g mask="url(&quot;#SvgjsMask1156&quot;)"><path d="M300 276L324 300L348 324M396 276L420 300L444 300L468 324L492 324M132 300L156 276L180 276L204 276L228 276M372 276L396 300L420 324L444 324M84 300L108 276L132 276M-12 276L12 300L36 300L60 300L84 300L108 300L132 300L156 300L180 300L204 300L228 300L252 300L276 276L300 276L324 276L348 276L372 276L396 276L420 276L444 276L468 300L492 300L516 300" stroke="rgba(69, 55, 221, 0.81)" stroke-width="4"></path><path d="M510 300 a6 6 0 1 0 12 0 a6 6 0 1 0 -12 0zM342 324 a6 6 0 1 0 12 0 a6 6 0 1 0 -12 0zM486 324 a6 6 0 1 0 12 0 a6 6 0 1 0 -12 0zM222 276 a6 6 0 1 0 12 0 a6 6 0 1 0 -12 0zM438 324 a6 6 0 1 0 12 0 a6 6 0 1 0 -12 0zM126 276 a6 6 0 1 0 12 0 a6 6 0 1 0 -12 0z" fill="rgba(69, 55, 221, 0.81)"></path><path d="M132 324L156 348L180 348M84 324L108 348L132 348L156 372M228 324L252 348L276 348M-12 300L12 324L36 324L60 324L84 324L108 324L132 324L156 324L180 324L204 324L228 324L252 324L276 324L300 324" stroke="rgba(82, 221, 55, 0.61)" stroke-width="4"></path><path d="M294 324 a6 6 0 1 0 12 0 a6 6 0 1 0 -12 0zM174 348 a6 6 0 1 0 12 0 a6 6 0 1 0 -12 0zM150 372 a6 6 0 1 0 12 0 a6 6 0 1 0 -12 0zM270 348 a6 6 0 1 0 12 0 a6 6 0 1 0 -12 0z" fill="rgba(82, 221, 55, 0.61)"></path><path d="M396 204L420 228L444 228L468 204M516 180L540 204L564 204L588 204L612 204L636 204L660 204L684 204L708 204L732 204M36 252L60 276L84 276M780 132L804 156L828 156M132 252L156 228L180 228L204 228M300 228L324 228L348 228L372 228L396 228L420 252L444 252L468 252L492 252L516 252L540 252L564 252M684 132L708 156L732 156L756 180L780 180M564 156L588 180M252 252L276 228M1140 132L1164 156L1188 156M996 132L1020 156L1044 156M1116 132L1140 108L1164 108L1188 132L1212 132M-12 252L12 252L36 252L60 252L84 252L108 252L132 252L156 252L180 252L204 252L228 252L252 252L276 252L300 228L324 204L348 204L372 204L396 204L420 204L444 180L468 180L492 180L516 180L540 156L564 156L588 156L612 156L636 156L660 156L684 132L708 132L732 132L756 132L780 132L804 132L828 132L852 132L876 132L900 132L924 132L948 132L972 132L996 132L1020 132L1044 132L1068 132L1092 132L1116 132L1140 132L1164 132" stroke="rgba(88, 231, 219, 1)" stroke-width="4"></path><path d="M1158 132 a6 6 0 1 0 12 0 a6 6 0 1 0 -12 0zM462 204 a6 6 0 1 0 12 0 a6 6 0 1 0 -12 0zM726 204 a6 6 0 1 0 12 0 a6 6 0 1 0 -12 0zM78 276 a6 6 0 1 0 12 0 a6 6 0 1 0 -12 0zM822 156 a6 6 0 1 0 12 0 a6 6 0 1 0 -12 0zM198 228 a6 6 0 1 0 12 0 a6 6 0 1 0 -12 0zM558 252 a6 6 0 1 0 12 0 a6 6 0 1 0 -12 0zM774 180 a6 6 0 1 0 12 0 a6 6 0 1 0 -12 0zM582 180 a6 6 0 1 0 12 0 a6 6 0 1 0 -12 0zM270 228 a6 6 0 1 0 12 0 a6 6 0 1 0 -12 0zM1182 156 a6 6 0 1 0 12 0 a6 6 0 1 0 -12 0zM1038 156 a6 6 0 1 0 12 0 a6 6 0 1 0 -12 0zM1206 132 a6 6 0 1 0 12 0 a6 6 0 1 0 -12 0z" fill="rgba(88, 231, 219, 1)"></path><path d="M828 348L852 372L876 372L900 372M1140 324L1164 348L1188 348L1212 348L1236 348L1260 348L1284 348M540 348L564 372L588 372L612 372L636 372L660 372L684 372L708 372L732 372L756 396M300 396L324 372L348 348M684 348L708 324M732 348L756 348L780 348L804 324L828 324L852 324L876 300L900 300M324 396L348 396L372 396L396 396L420 396L444 396L468 396L492 396L516 396L540 396M1212 324L1236 300L1260 300L1284 300M972 324L996 300M204 372L228 396L252 420L276 420L300 420L324 420L348 420L372 420L396 420L420 420L444 420L468 420L492 420L516 420L540 420M900 324L924 348L948 348L972 348L996 348L1020 348M396 372L420 348M1188 324L1212 300L1236 276L1260 276L1284 276M-12 324L12 348L36 348L60 348L84 372L108 372L132 396L156 396L180 372L204 372L228 372L252 396L276 396L300 396L324 396L348 372L372 372L396 372L420 372L444 348L468 348L492 348L516 348L540 348L564 348L588 348L612 348L636 348L660 348L684 348L708 348L732 348L756 372L780 372L804 348L828 348L852 348L876 324L900 324L924 324L948 324L972 324L996 324L1020 324L1044 324L1068 324L1092 324L1116 324L1140 324L1164 324L1188 324L1212 324L1236 324" stroke="rgba(82, 221, 55, 0.61)" stroke-width="4"></path><path d="M1230 324 a6 6 0 1 0 12 0 a6 6 0 1 0 -12 0zM894 372 a6 6 0 1 0 12 0 a6 6 0 1 0 -12 0zM1278 348 a6 6 0 1 0 12 0 a6 6 0 1 0 -12 0zM750 396 a6 6 0 1 0 12 0 a6 6 0 1 0 -12 0zM342 348 a6 6 0 1 0 12 0 a6 6 0 1 0 -12 0zM702 324 a6 6 0 1 0 12 0 a6 6 0 1 0 -12 0zM894 300 a6 6 0 1 0 12 0 a6 6 0 1 0 -12 0zM534 396 a6 6 0 1 0 12 0 a6 6 0 1 0 -12 0zM1278 300 a6 6 0 1 0 12 0 a6 6 0 1 0 -12 0zM990 300 a6 6 0 1 0 12 0 a6 6 0 1 0 -12 0zM534 420 a6 6 0 1 0 12 0 a6 6 0 1 0 -12 0zM1014 348 a6 6 0 1 0 12 0 a6 6 0 1 0 -12 0zM414 348 a6 6 0 1 0 12 0 a6 6 0 1 0 -12 0zM1278 276 a6 6 0 1 0 12 0 a6 6 0 1 0 -12 0z" fill="rgba(82, 221, 55, 0.61)"></path><path d="M228 204L252 228M36 228L60 228L84 228M972 108L996 84M156 204L180 180M924 108L948 84L972 84M132 204L156 180M108 204L132 228M-12 228L12 228L36 228L60 204L84 204L108 204L132 204L156 204L180 204L204 204L228 204L252 204L276 204L300 204L324 180L348 180L372 180L396 180L420 180L444 156L468 156L492 156L516 156L540 132L564 132L588 132L612 132L636 132L660 132L684 108L708 108L732 108L756 108L780 108L804 108L828 108L852 108L876 108L900 108L924 108L948 108L972 108L996 108L1020 108" stroke="rgba(82, 221, 55, 0.61)" stroke-width="4"></path><path d="M1014 108 a6 6 0 1 0 12 0 a6 6 0 1 0 -12 0zM246 228 a6 6 0 1 0 12 0 a6 6 0 1 0 -12 0zM78 228 a6 6 0 1 0 12 0 a6 6 0 1 0 -12 0zM990 84 a6 6 0 1 0 12 0 a6 6 0 1 0 -12 0zM174 180 a6 6 0 1 0 12 0 a6 6 0 1 0 -12 0zM966 84 a6 6 0 1 0 12 0 a6 6 0 1 0 -12 0zM150 180 a6 6 0 1 0 12 0 a6 6 0 1 0 -12 0zM126 228 a6 6 0 1 0 12 0 a6 6 0 1 0 -12 0z" fill="rgba(82, 221, 55, 0.61)"></path><path d="M-12 348L12 372L36 372L60 372L84 396L108 396L132 420" stroke="rgba(88, 231, 219, 1)" stroke-width="4"></path><path d="M126 420 a6 6 0 1 0 12 0 a6 6 0 1 0 -12 0z" fill="rgba(88, 231, 219, 1)"></path><path d="M468 132L492 108L516 108M636 108L660 84M180 156L204 156M588 108L612 84L636 84M108 180L132 180M564 108L588 84M-12 204L12 204L36 204L60 180L84 180L108 180L132 156L156 156L180 156L204 180L228 180L252 180L276 180L300 180L324 156L348 156L372 156L396 156L420 156L444 132L468 132L492 132L516 132L540 108L564 108L588 108L612 108L636 108L660 108L684 84L708 84L732 84L756 84L780 84L804 84L828 84L852 84L876 84L900 84" stroke="rgba(88, 231, 219, 1)" stroke-width="4"></path><path d="M894 84 a6 6 0 1 0 12 0 a6 6 0 1 0 -12 0zM510 108 a6 6 0 1 0 12 0 a6 6 0 1 0 -12 0zM654 84 a6 6 0 1 0 12 0 a6 6 0 1 0 -12 0zM198 156 a6 6 0 1 0 12 0 a6 6 0 1 0 -12 0zM630 84 a6 6 0 1 0 12 0 a6 6 0 1 0 -12 0zM126 180 a6 6 0 1 0 12 0 a6 6 0 1 0 -12 0zM582 84 a6 6 0 1 0 12 0 a6 6 0 1 0 -12 0z" fill="rgba(88, 231, 219, 1)"></path><path d="M-12 372L12 396L36 396L60 396L84 420" stroke="rgba(82, 221, 55, 0.61)" stroke-width="4"></path><path d="M78 420 a6 6 0 1 0 12 0 a6 6 0 1 0 -12 0z" fill="rgba(82, 221, 55, 0.61)"></path><path d="M252 156L276 132L300 132M228 156L252 132M204 132L228 132M444 108L468 108M-12 180L12 180L36 180L60 156L84 156L108 156L132 132L156 132L180 132L204 132L228 156L252 156L276 156L300 156L324 132L348 132L372 132L396 132L420 132L444 108L468 84L492 84L516 84L540 84" stroke="rgba(69, 55, 221, 0.81)" stroke-width="4"></path><path d="M534 84 a6 6 0 1 0 12 0 a6 6 0 1 0 -12 0zM294 132 a6 6 0 1 0 12 0 a6 6 0 1 0 -12 0zM246 132 a6 6 0 1 0 12 0 a6 6 0 1 0 -12 0zM222 132 a6 6 0 1 0 12 0 a6 6 0 1 0 -12 0zM462 108 a6 6 0 1 0 12 0 a6 6 0 1 0 -12 0z" fill="rgba(69, 55, 221, 0.81)"></path><path d="M12 420L36 444L60 468L84 468M36 420L60 420M-12 396L12 420L36 420L60 444L84 444" stroke="rgba(88, 231, 219, 1)" stroke-width="4"></path><path d="M78 444 a6 6 0 1 0 12 0 a6 6 0 1 0 -12 0zM78 468 a6 6 0 1 0 12 0 a6 6 0 1 0 -12 0zM54 420 a6 6 0 1 0 12 0 a6 6 0 1 0 -12 0z" fill="rgba(88, 231, 219, 1)"></path><path d="M228 108L252 84L276 84L300 84L324 84M372 108L396 84L420 84M1068 60L1092 84L1116 108M132 108L156 84L180 84L204 84L228 84M1044 60L1068 84L1092 108M1020 60L1044 84L1068 108M12 156L36 132L60 108L84 108L108 108M348 108L372 84L396 60L420 60L444 60M1116 84L1140 60L1164 60L1188 84L1212 84L1236 84L1260 84L1284 84M1092 60L1116 60M-12 156L12 156L36 156L60 132L84 132L108 132L132 108L156 108L180 108L204 108L228 108L252 108L276 108L300 108L324 108L348 108L372 108L396 108L420 108L444 84L468 60L492 60L516 60L540 60L564 60L588 60L612 60L636 60L660 60L684 60L708 60L732 60L756 60L780 60L804 60L828 60L852 60L876 60L900 60L924 60L948 60L972 60L996 60L1020 60L1044 60L1068 60L1092 60L1116 84L1140 84" stroke="rgba(88, 231, 219, 1)" stroke-width="4"></path><path d="M1134 84 a6 6 0 1 0 12 0 a6 6 0 1 0 -12 0zM318 84 a6 6 0 1 0 12 0 a6 6 0 1 0 -12 0zM414 84 a6 6 0 1 0 12 0 a6 6 0 1 0 -12 0zM1110 108 a6 6 0 1 0 12 0 a6 6 0 1 0 -12 0zM222 84 a6 6 0 1 0 12 0 a6 6 0 1 0 -12 0zM1086 108 a6 6 0 1 0 12 0 a6 6 0 1 0 -12 0zM1062 108 a6 6 0 1 0 12 0 a6 6 0 1 0 -12 0zM102 108 a6 6 0 1 0 12 0 a6 6 0 1 0 -12 0zM438 60 a6 6 0 1 0 12 0 a6 6 0 1 0 -12 0zM1278 84 a6 6 0 1 0 12 0 a6 6 0 1 0 -12 0zM1110 60 a6 6 0 1 0 12 0 a6 6 0 1 0 -12 0z" fill="rgba(88, 231, 219, 1)"></path></g></g><defs><mask id="SvgjsMask1155"><rect width="1440" height="560" fill="#ffffff"></rect></mask><mask id="SvgjsMask1156"><rect width="1440" height="560" fill="white"></rect><path d="M513 300 a3 3 0 1 0 6 0 a3 3 0 1 0 -6 0zM345 324 a3 3 0 1 0 6 0 a3 3 0 1 0 -6 0zM489 324 a3 3 0 1 0 6 0 a3 3 0 1 0 -6 0zM225 276 a3 3 0 1 0 6 0 a3 3 0 1 0 -6 0zM441 324 a3 3 0 1 0 6 0 a3 3 0 1 0 -6 0zM129 276 a3 3 0 1 0 6 0 a3 3 0 1 0 -6 0z" fill="black"></path><path d="M297 324 a3 3 0 1 0 6 0 a3 3 0 1 0 -6 0zM177 348 a3 3 0 1 0 6 0 a3 3 0 1 0 -6 0zM153 372 a3 3 0 1 0 6 0 a3 3 0 1 0 -6 0zM273 348 a3 3 0 1 0 6 0 a3 3 0 1 0 -6 0z" fill="black"></path><path d="M1161 132 a3 3 0 1 0 6 0 a3 3 0 1 0 -6 0zM465 204 a3 3 0 1 0 6 0 a3 3 0 1 0 -6 0zM729 204 a3 3 0 1 0 6 0 a3 3 0 1 0 -6 0zM81 276 a3 3 0 1 0 6 0 a3 3 0 1 0 -6 0zM825 156 a3 3 0 1 0 6 0 a3 3 0 1 0 -6 0zM201 228 a3 3 0 1 0 6 0 a3 3 0 1 0 -6 0zM561 252 a3 3 0 1 0 6 0 a3 3 0 1 0 -6 0zM777 180 a3 3 0 1 0 6 0 a3 3 0 1 0 -6 0zM585 180 a3 3 0 1 0 6 0 a3 3 0 1 0 -6 0zM273 228 a3 3 0 1 0 6 0 a3 3 0 1 0 -6 0zM1185 156 a3 3 0 1 0 6 0 a3 3 0 1 0 -6 0zM1041 156 a3 3 0 1 0 6 0 a3 3 0 1 0 -6 0zM1209 132 a3 3 0 1 0 6 0 a3 3 0 1 0 -6 0z" fill="black"></path><path d="M1233 324 a3 3 0 1 0 6 0 a3 3 0 1 0 -6 0zM897 372 a3 3 0 1 0 6 0 a3 3 0 1 0 -6 0zM1281 348 a3 3 0 1 0 6 0 a3 3 0 1 0 -6 0zM753 396 a3 3 0 1 0 6 0 a3 3 0 1 0 -6 0zM345 348 a3 3 0 1 0 6 0 a3 3 0 1 0 -6 0zM705 324 a3 3 0 1 0 6 0 a3 3 0 1 0 -6 0zM897 300 a3 3 0 1 0 6 0 a3 3 0 1 0 -6 0zM537 396 a3 3 0 1 0 6 0 a3 3 0 1 0 -6 0zM1281 300 a3 3 0 1 0 6 0 a3 3 0 1 0 -6 0zM993 300 a3 3 0 1 0 6 0 a3 3 0 1 0 -6 0zM537 420 a3 3 0 1 0 6 0 a3 3 0 1 0 -6 0zM1017 348 a3 3 0 1 0 6 0 a3 3 0 1 0 -6 0zM417 348 a3 3 0 1 0 6 0 a3 3 0 1 0 -6 0zM1281 276 a3 3 0 1 0 6 0 a3 3 0 1 0 -6 0z" fill="black"></path><path d="M1017 108 a3 3 0 1 0 6 0 a3 3 0 1 0 -6 0zM249 228 a3 3 0 1 0 6 0 a3 3 0 1 0 -6 0zM81 228 a3 3 0 1 0 6 0 a3 3 0 1 0 -6 0zM993 84 a3 3 0 1 0 6 0 a3 3 0 1 0 -6 0zM177 180 a3 3 0 1 0 6 0 a3 3 0 1 0 -6 0zM969 84 a3 3 0 1 0 6 0 a3 3 0 1 0 -6 0zM153 180 a3 3 0 1 0 6 0 a3 3 0 1 0 -6 0zM129 228 a3 3 0 1 0 6 0 a3 3 0 1 0 -6 0z" fill="black"></path><path d="M129 420 a3 3 0 1 0 6 0 a3 3 0 1 0 -6 0z" fill="black"></path><path d="M897 84 a3 3 0 1 0 6 0 a3 3 0 1 0 -6 0zM513 108 a3 3 0 1 0 6 0 a3 3 0 1 0 -6 0zM657 84 a3 3 0 1 0 6 0 a3 3 0 1 0 -6 0zM201 156 a3 3 0 1 0 6 0 a3 3 0 1 0 -6 0zM633 84 a3 3 0 1 0 6 0 a3 3 0 1 0 -6 0zM129 180 a3 3 0 1 0 6 0 a3 3 0 1 0 -6 0zM585 84 a3 3 0 1 0 6 0 a3 3 0 1 0 -6 0z" fill="black"></path><path d="M81 420 a3 3 0 1 0 6 0 a3 3 0 1 0 -6 0z" fill="black"></path><path d="M537 84 a3 3 0 1 0 6 0 a3 3 0 1 0 -6 0zM297 132 a3 3 0 1 0 6 0 a3 3 0 1 0 -6 0zM249 132 a3 3 0 1 0 6 0 a3 3 0 1 0 -6 0zM225 132 a3 3 0 1 0 6 0 a3 3 0 1 0 -6 0zM465 108 a3 3 0 1 0 6 0 a3 3 0 1 0 -6 0z" fill="black"></path><path d="M81 444 a3 3 0 1 0 6 0 a3 3 0 1 0 -6 0zM81 468 a3 3 0 1 0 6 0 a3 3 0 1 0 -6 0zM57 420 a3 3 0 1 0 6 0 a3 3 0 1 0 -6 0z" fill="black"></path><path d="M1137 84 a3 3 0 1 0 6 0 a3 3 0 1 0 -6 0zM321 84 a3 3 0 1 0 6 0 a3 3 0 1 0 -6 0zM417 84 a3 3 0 1 0 6 0 a3 3 0 1 0 -6 0zM1113 108 a3 3 0 1 0 6 0 a3 3 0 1 0 -6 0zM225 84 a3 3 0 1 0 6 0 a3 3 0 1 0 -6 0zM1089 108 a3 3 0 1 0 6 0 a3 3 0 1 0 -6 0zM1065 108 a3 3 0 1 0 6 0 a3 3 0 1 0 -6 0zM105 108 a3 3 0 1 0 6 0 a3 3 0 1 0 -6 0zM441 60 a3 3 0 1 0 6 0 a3 3 0 1 0 -6 0zM1281 84 a3 3 0 1 0 6 0 a3 3 0 1 0 -6 0zM1113 60 a3 3 0 1 0 6 0 a3 3 0 1 0 -6 0z" fill="black"></path></mask></defs></svg>