<?xml version="1.0" encoding="UTF-8"?>
<!DOCTYPE svg PUBLIC "-//W3C//DTD SVG 1.1//EN" "http://www.w3.org/Graphics/SVG/1.1/DTD/svg11.dtd">
<!-- Creator: CorelDRAW X6 -->
<svg xmlns="http://www.w3.org/2000/svg" xml:space="preserve" width="109.537mm" height="60.5912mm" version="1.1" style="shape-rendering:geometricPrecision; text-rendering:geometricPrecision; image-rendering:optimizeQuality; fill-rule:evenodd; clip-rule:evenodd"
viewBox="0 0 10954 6059"
 xmlns:xlink="http://www.w3.org/1999/xlink">
 <defs>
  <style type="text/css">
   <![CDATA[
    .fil2 {fill:#2B2A29;fill-rule:nonzero}
    .fil0 {fill:#393185;fill-rule:nonzero}
    .fil1 {fill:#EF7F1A;fill-rule:nonzero}
   ]]>
  </style>
 </defs>
 <g id="Layer_x0020_1">
  <metadata id="CorelCorpID_0Corel-Layer"/>
  <g id="_881832208">
   <path class="fil0" d="M3326 5634c-583,170 -1167,2 -1722,-357 -974,-630 -1187,-1850 -644,-2854 572,-1058 1847,-1354 2877,-735 214,129 398,289 549,470 222,266 571,390 908,306l29 -7c377,-94 564,-518 381,-861 -264,-494 -668,-921 -1196,-1216 -1404,-784 -3200,-320 -4049,1046 -895,1440 -436,3328 1012,4199 610,367 1297,494 1952,408 116,-15 195,-125 172,-240 -25,-122 -148,-194 -267,-159z"/>
   <path class="fil1" d="M852 2437c627,-1027 1954,-1368 2985,-749 214,129 398,289 549,470 222,266 571,390 908,306l29 -7c377,-94 564,-518 381,-861 -264,-494 -668,-921 -1196,-1216 -1404,-784 -3200,-320 -4049,1046 -895,1440 -436,3328 1012,4199 404,243 843,380 1283,420 -2550,-459 -2386,-2813 -1900,-3609z"/>
   <path class="fil0" d="M2272 962c1262,-41 1859,685 2169,1160 189,290 517,426 853,342l29 -7c377,-94 564,-518 381,-861 -264,-494 -668,-921 -1196,-1216 -1404,-784 -3200,-320 -4049,1046 -331,533 -477,1127 -455,1708 -24,-1253 1007,-2132 2270,-2173z"/>
   <path class="fil1" d="M4201 5656c0,121 -98,219 -219,219 -121,0 -219,-98 -219,-219 0,-121 98,-219 219,-219 121,0 219,98 219,219z"/>
   <path class="fil1" d="M4656 5383c0,88 -72,160 -160,160 -88,0 -160,-72 -160,-160 0,-88 72,-160 160,-160 88,0 160,72 160,160z"/>
   <path class="fil1" d="M4959 5120c0,57 -46,103 -103,103 -57,0 -103,-46 -103,-103 0,-57 46,-103 103,-103 57,0 103,46 103,103z"/>
   <path class="fil2" d="M4467 2952l-475 1797 -449 0 -298 -1153c-16,-60 -25,-127 -29,-202l-5 0c-8,82 -18,149 -33,202l-306 1153 -467 0 -472 -1797 442 0 253 1197c11,51 19,119 24,205l8 0c3,-64 15,-134 36,-210l326 -1191 433 0 295 1206c11,44 21,109 29,193l5 0c3,-66 12,-133 26,-200l248 -1199 408 0zm731 1828c-214,0 -382,-60 -504,-180 -122,-120 -183,-283 -183,-488 0,-212 63,-378 190,-498 127,-120 299,-180 515,-180 213,0 380,60 501,180 121,120 182,278 182,476 0,213 -62,381 -187,505 -125,124 -296,185 -513,185zm10 -1042c-94,0 -166,32 -218,96 -52,65 -78,156 -78,273 0,246 100,370 299,370 189,0 284,-127 284,-379 0,-240 -96,-360 -287,-360zm1784 85c-48,-26 -104,-39 -167,-39 -86,0 -153,32 -202,95 -48,63 -73,149 -73,257l0 613 -396 0 0 -1283 396 0 0 238 5 0c63,-174 175,-261 338,-261 42,0 74,5 98,15l0 365zm568 491c0,54 13,95 39,124 26,28 61,42 104,42 22,0 44,-2 65,-6 22,-4 44,-8 65,-12l0 278c-48,12 -98,23 -151,30 -53,8 -109,12 -166,12 -53,0 -101,-9 -144,-26 -43,-18 -80,-43 -110,-76 -30,-33 -54,-73 -71,-119 -17,-47 -25,-100 -25,-158l0 -1552 393 0 0 1464zm1695 435l-396 0 0 -177 -5 0c-90,139 -223,208 -397,208 -160,0 -290,-56 -387,-170 -98,-113 -147,-271 -147,-474 0,-212 54,-382 162,-510 108,-128 249,-192 423,-192 166,0 281,59 346,178l5 0 0 -763 396 0 0 1899zm-388 -624l0 -97c0,-83 -24,-153 -73,-208 -48,-55 -112,-83 -189,-83 -88,0 -157,34 -206,103 -49,69 -74,164 -74,284 0,113 24,200 71,260 48,61 114,92 198,92 80,0 146,-32 196,-96 50,-65 76,-150 76,-256zm1621 -862c-67,0 -121,-20 -164,-59 -42,-40 -64,-88 -64,-146 0,-59 21,-108 64,-145 43,-38 98,-56 164,-56 68,0 123,19 165,56 42,38 63,86 63,145 0,60 -21,109 -63,148 -42,38 -97,57 -165,57zm192 1051c0,54 13,95 39,124 26,28 61,42 104,42 22,0 44,-2 65,-6 22,-4 44,-8 65,-12l0 278c-48,12 -98,23 -151,30 -53,8 -109,12 -166,12 -53,0 -101,-9 -144,-26 -43,-18 -80,-43 -110,-76 -30,-33 -54,-73 -71,-119 -17,-47 -25,-100 -25,-158l0 -936 393 0 0 848z"/>
  </g>
 </g>
</svg>
